<svg version="1.1" id="Layer_1" xmlns="http://www.w3.org/2000/svg"
    xmlns:xlink="http://www.w3.org/1999/xlink" x="0px" y="0px" width="1200px" height="1200px"
    viewBox="0 0 1200 1200" enable-background="new 0 0 1200 1200" xml:space="preserve">
<g>
	<g>
		
			<linearGradient id="SVGID_1_" gradientUnits="userSpaceOnUse" x1="242.4991" y1="868.2912" x2="235.8912" y2="983.8575" gradientTransform="matrix(1.0053 0.0111 -0.0427 1 88.1792 -233.3411)">
			<stop offset="0" style="stop-color:#2D241B"/>
			<stop offset="1" style="stop-color:#54473A"/>
		</linearGradient>
		<path fill="url(#SVGID_1_)" d="M233.86,698.887l5.759-1.201c0,0-2.607-40.833,18.259-42.934&#xA;&#9;&#9;&#9;c8.281,3.636,6.116,11.852,6.116,11.852l0.702,29.47l8.849,4.725l7.324-2.324c0,0,4.069-37.782,22.944-42.001&#xA;&#9;&#9;&#9;c0,0,9.45-2.417,14.593,6.764c4.811-10.477,8.406-2.908,8.406-2.908l0.332,23.496c0,0,15.534-39.677,34.36-30.813l2.702-10.982&#xA;&#9;&#9;&#9;c0,0-4.131-11.346-4.125-12.988c0.024-1.644-43.43-3.366-43.43-3.366l-56.381,2.354l-29.218,7.189l-8.154,24.635L233.86,698.887z"/>
		
			<linearGradient id="SVGID_2_" gradientUnits="userSpaceOnUse" x1="184.3897" y1="889.8457" x2="182.2505" y2="969.5602" gradientTransform="matrix(1.0053 0.0111 -0.0427 1 88.1792 -233.3411)">
			<stop offset="0" style="stop-color:#54473A"/>
			<stop offset="1" style="stop-color: rgb(208, 188, 156);"/>
		</linearGradient>
		<path fill="url(#SVGID_2_)" d="M228.613,700.088l5.247-1.201c0,0-5.437-61.974,13.81-61.848&#xA;&#9;&#9;&#9;c-7.728-6.367-16.616-1.817-16.616-1.817l-5.38,12.626l-0.079,45.193L228.613,700.088z"/>
		
			<linearGradient id="SVGID_3_" gradientUnits="userSpaceOnUse" x1="225.8194" y1="717.0026" x2="258.2714" y2="717.0026" gradientTransform="matrix(1.0053 0.0111 -0.0427 1 88.1792 -233.3411)">
			<stop offset="0" style="stop-color: rgb(220, 202, 179);"/>
			<stop offset="1" style="stop-color:#887E70"/>
		</linearGradient>
		<path fill="url(#SVGID_3_)" d="M283.193,518.812c0,0-0.293-8.611,11.314-8.929c1.817-0.047,1.817-0.047,1.817-0.047l2.79-56.649&#xA;&#9;&#9;&#9;l2.338-0.584l0.324,56.712c0,0,15.224-0.016,14.072,8.264C301.292,519.87,285.358,520.991,283.193,518.812z"/>
		
			<radialGradient id="SVGID_4_" cx="323.8979" cy="773.8931" r="141.6767" gradientTransform="matrix(1.0053 0.0111 -0.0427 1 88.1792 -233.3411)" gradientUnits="userSpaceOnUse">
			<stop offset="0" style="stop-color: rgb(255, 0, 0);"/>
			<stop offset="0.544" style="stop-color: rgb(255, 70, 70);"/>
			<stop offset="1" style="stop-color:#AEA18F"/>
		</radialGradient>
		<path fill="url(#SVGID_4_)" d="M227.453,593.048c0,0,4.084-72.704,74.568-73.02c68.745-0.317,72.039,53.424,72.039,53.424&#xA;&#9;&#9;&#9;l2.039,21.475L227.453,593.048z"/>
		
			<linearGradient id="SVGID_5_" gradientUnits="userSpaceOnUse" x1="205.8045" y1="753.6187" x2="282.0641" y2="753.6187" gradientTransform="matrix(1.0053 0.0111 -0.0427 1 88.1792 -233.3411)">
			<stop offset="0" style="stop-color: rgb(220, 202, 179);"/>
			<stop offset="1" style="stop-color:#887E70"/>
		</linearGradient>
		<path fill="url(#SVGID_5_)" d="M262.8,530.062l0.079-7.126c0,0,9.861-6.654,36.297-7.348c26.499-0.696,40.239,4.566,40.239,4.566&#xA;&#9;&#9;&#9;l-0.039,7.537C339.376,527.692,304.888,522.951,262.8,530.062z"/>
		
			<linearGradient id="SVGID_6_" gradientUnits="userSpaceOnUse" x1="222.0381" y1="826.6713" x2="114.4111" y2="837.7126" gradientTransform="matrix(1.0053 0.0111 -0.0427 1 88.1792 -233.3411)">
			<stop offset="0" style="stop-color: rgb(255, 70, 70);"/>
			<stop offset="1" style="stop-color:#D0C0A5"/>
		</linearGradient>
		<polygon fill="url(#SVGID_6_)" points="220.974,613.085 221.218,594.422 261.852,581.26 261.505,612.942 &#9;&#9;"/>
		
			<linearGradient id="SVGID_7_" gradientUnits="userSpaceOnUse" x1="320.5935" y1="827.913" x2="187.5032" y2="826.0116" gradientTransform="matrix(1.0053 0.0111 -0.0427 1 88.1792 -233.3411)">
			<stop offset="0" style="stop-color: rgb(255, 0, 0);"/>
			<stop offset="0.6374" style="stop-color: rgb(255, 85, 85);"/>
			<stop offset="1" style="stop-color:#B4A794"/>
		</linearGradient>
		<polygon fill="url(#SVGID_7_)" points="336.167,611.219 261.599,612.957 262.01,581.26 336.411,579.458 &#9;&#9;"/>
		<polygon fill="#F8ECDD" points="336.373,579.458 371.927,587.959 371.776,610.366 336.104,611.219 &#9;&#9;" style="fill: rgb(248, 236, 221);"/>
		
			<linearGradient id="SVGID_8_" gradientUnits="userSpaceOnUse" x1="236.2521" y1="830.7229" x2="225.5196" y2="976.152" gradientTransform="matrix(1.0053 0.0111 -0.0427 1 88.1792 -233.3411)">
			<stop offset="0" style="stop-color:#54473A"/>
			<stop offset="1" style="stop-color: rgb(208, 188, 156);"/>
		</linearGradient>
		<path fill="url(#SVGID_8_)" d="M219.574,638.746c0,0-26.53-6.369-20.517-17.967c8.129-15.754,100.427-17.919,100.427-17.919&#xA;&#9;&#9;&#9;s42.57-2.987,77.002,6.179c-0.11,17.428-0.11,17.428-0.11,17.428l-27.289,0.633l-114.808,1.563L219.574,638.746z"/>
		
			<linearGradient id="SVGID_9_" gradientUnits="userSpaceOnUse" x1="237.1047" y1="892.0734" x2="129.6883" y2="889.9334" gradientTransform="matrix(1.0053 0.0111 -0.0427 1 88.1792 -233.3411)">
			<stop offset="0" style="stop-color: rgb(255, 70, 70);"/>
			<stop offset="1" style="stop-color:#D0C0A5"/>
		</linearGradient>
		<path fill="url(#SVGID_9_)" d="M219.401,697.955l0.972-70.635l39.496-7.411l-0.956,79.545l-4.196,0.112l0.586-46.931&#xA;&#9;&#9;&#9;c0,0,1.264-19.626-12.856-14.396c-10.974,4.031-13.194,14.95-13.352,27.48c-0.189,12.547-0.482,34.368-0.482,34.368&#xA;&#9;&#9;&#9;L219.401,697.955z"/>
		
			<linearGradient id="SVGID_10_" gradientUnits="userSpaceOnUse" x1="281.2148" y1="892.3298" x2="191.4022" y2="886.5173" gradientTransform="matrix(1.0053 0.0111 -0.0427 1 88.1792 -233.3411)">
			<stop offset="0" style="stop-color: rgb(255, 0, 0);"/>
			<stop offset="0.6374" style="stop-color: rgb(255, 85, 85);"/>
			<stop offset="1" style="stop-color:#B4A794"/>
		</linearGradient>
		<path fill="url(#SVGID_10_)" d="M258.913,699.455l0.956-79.545l63.151-1.469l-0.71,79.197l-6.322,0.112l0.332-35.017&#xA;&#9;&#9;&#9;c0,0,1.825-27.842-21.695-27.321c-23.48,0.523-22.737,26.105-22.737,26.105l-0.419,38.24L258.913,699.455z"/>
		<path fill="#F8ECDD" d="M322.31,697.638l0.71-79.197l45.485,6.052l-0.458,69.448l-6.841,0.142l0.299-41.069&#xA;&#9;&#9;&#9;c0,0,0.523-15.406-15.121-18.22c-18.804-3.38-17.454,24.383-17.454,24.383l-0.332,38.318L322.31,697.638z" style="fill: rgb(248, 236, 221);"/>
		
			<linearGradient id="SVGID_11_" gradientUnits="userSpaceOnUse" x1="570.7311" y1="1160.1061" x2="-132.9171" y2="1138.0643" gradientTransform="matrix(1.0053 0.0111 -0.0427 1 88.1792 -233.3411)">
			<stop offset="0" style="stop-color: rgb(255, 0, 0);"/>
			<stop offset="0.6374" style="stop-color: rgb(255, 85, 85);"/>
			<stop offset="1" style="stop-color:#B4A794"/>
		</linearGradient>
		<polygon fill="url(#SVGID_11_)" points="184.4,694.083 367.992,690.29 364.95,1145.758 170.203,1146.896 &#9;&#9;"/>
		
			<linearGradient id="SVGID_12_" gradientUnits="userSpaceOnUse" x1="312.8909" y1="951.8882" x2="36.1944" y2="934.382" gradientTransform="matrix(1.0053 0.0111 -0.0427 1 88.1792 -233.3411)">
			<stop offset="0" style="stop-color: rgb(255, 0, 0);"/>
			<stop offset="0.6374" style="stop-color: rgb(255, 85, 85);"/>
			<stop offset="1" style="stop-color:#B4A794"/>
		</linearGradient>
		<polygon fill="url(#SVGID_12_)" points="367.621,717.201 183.958,720.804 184.084,714.12 367.676,710.439 &#9;&#9;"/>
		
			<linearGradient id="SVGID_13_" gradientUnits="userSpaceOnUse" x1="308.1953" y1="950.6864" x2="81.3355" y2="953.4415" gradientTransform="matrix(1.0053 0.0111 -0.0427 1 88.1792 -233.3411)">
			<stop offset="0" style="stop-color: rgb(221, 204, 181);"/>
			<stop offset="1" style="stop-color: rgb(180, 167, 148);"/>
		</linearGradient>
		<polygon fill="url(#SVGID_13_)" points="367.613,721.152 183.91,724.754 183.989,720.582 367.628,716.948 &#9;&#9;"/>
		
			<linearGradient id="SVGID_14_" gradientUnits="userSpaceOnUse" x1="416.3163" y1="1072.9506" x2="144.8411" y2="1082.1844" gradientTransform="matrix(1.0053 0.0111 -0.0427 1 88.1792 -233.3411)">
			<stop offset="0" style="stop-color: rgb(255, 0, 0);"/>
			<stop offset="0.6374" style="stop-color: rgb(255, 85, 85);"/>
			<stop offset="1" style="stop-color:#B4A794"/>
		</linearGradient>
		<polygon fill="url(#SVGID_14_)" points="332.201,935.059 217.142,936.528 219.543,761.824 333.662,759.724 &#9;&#9;"/>
		
			<linearGradient id="SVGID_15_" gradientUnits="userSpaceOnUse" x1="431.1248" y1="1281.3766" x2="156.9647" y2="1290.7018" gradientTransform="matrix(1.0053 0.0111 -0.0427 1 88.1792 -233.3411)">
			<stop offset="0" style="stop-color: rgb(255, 0, 0);"/>
			<stop offset="0.6374" style="stop-color: rgb(255, 85, 85);"/>
			<stop offset="1" style="stop-color:#B4A794"/>
		</linearGradient>
		<polygon fill="url(#SVGID_15_)" points="330.455,1145.978 214.265,1146.643 216.699,968.463 331.908,967.12 &#9;&#9;"/>
		
			<linearGradient id="SVGID_16_" gradientUnits="userSpaceOnUse" x1="-40.5606" y1="1101.5999" x2="253.5458" y2="1077.3436" gradientTransform="matrix(1.0053 0.0111 -0.0427 1 88.1792 -233.3411)">
			<stop offset="0" style="stop-color: rgb(255, 70, 70);"/>
			<stop offset="1" style="stop-color:#D0C0A5"/>
		</linearGradient>
		<path fill="url(#SVGID_16_)" d="M66.804,651.909c0,0-9.844-9.497,1.011-12.199c4.196-16.276,4.196-16.276,4.196-16.276&#xA;&#9;&#9;&#9;l4.283,16.907c0,0,7.702-0.157,7.616,5.514c-0.126,5.673-5.539,5.799-5.539,5.799l-5.357-1.5l-1.5,70.822l24.943-6.21&#xA;&#9;&#9;&#9;l2.338-118.622c0,0-7.671-2.244-6.802-6.306c0.828-4.045,7.814-5.814,7.814-5.814l3.358-15.407l3.54,16.828&#xA;&#9;&#9;&#9;c0,0,9.259-0.206,8.43,3.825c-0.838,4.076-8.628,6.684-8.628,6.684l-1.139,59.983l26.342-0.584l-0.948,52.177l50.73-13.289&#xA;&#9;&#9;&#9;l-10.942,453.444L50,1148.381L66.804,651.909z"/>
		
			<linearGradient id="SVGID_17_" gradientUnits="userSpaceOnUse" x1="80.0808" y1="1127.6532" x2="143.8433" y2="1127.6532" gradientTransform="matrix(1.0012 0.0678 -0.0998 0.9978 120.9868 -263.7448)">
			<stop offset="0" style="stop-color:#2D241B"/>
			<stop offset="1" style="stop-color:#54473A"/>
		</linearGradient>
		<path fill="url(#SVGID_17_)" d="M89.59,945.298l2.157-109.663c0,0,2.963-31.399,28.168-45.035&#xA;&#9;&#9;&#9;c17.815,6.288,27.653,25.93,27.297,48.274c-0.403,22.39-1.754,102.346-1.754,102.346L89.59,945.298z"/>
		
			<linearGradient id="SVGID_18_" gradientUnits="userSpaceOnUse" x1="96.0314" y1="1327.9653" x2="160.8683" y2="1327.9653" gradientTransform="matrix(1.0012 0.0678 -0.0998 0.9978 120.9868 -263.7448)">
			<stop offset="0" style="stop-color:#2D241B"/>
			<stop offset="1" style="stop-color:#54473A"/>
		</linearGradient>
		<path fill="url(#SVGID_18_)" d="M85.601,1147.655l2.196-111.781c0,0,2.979-31.967,28.427-45.7&#xA;&#9;&#9;&#9;c18.022,6.542,27.938,26.611,27.535,49.381c-0.387,22.833-1.841,108.637-1.841,108.637L85.601,1147.655z"/>
		<polygon fill="#F8ECDD" points="217.142,936.528 207.186,936.638 209.809,752.897 343.602,750.384 342.164,935.217 &#xA;&#9;&#9;&#9;332.201,935.327 333.662,759.724 219.543,761.824 &#9;&#9;" style="fill: rgb(248, 236, 221);"/>
		<polygon fill="#F8ECDD" points="214.257,1146.263 204.207,1146.326 206.895,958.903 342.007,957.307 340.528,1145.789 &#xA;&#9;&#9;&#9;330.431,1145.852 331.933,966.757 216.715,968.084 &#9;&#9;" style="fill: rgb(248, 236, 221);"/>
		
			<linearGradient id="SVGID_19_" gradientUnits="userSpaceOnUse" x1="122.0211" y1="908.6358" x2="-61.1138" y2="861.3973" gradientTransform="matrix(1.0053 0.0111 -0.0427 1 88.1792 -233.3411)">
			<stop offset="0" style="stop-color:#54473A"/>
			<stop offset="1" style="stop-color: rgb(208, 188, 156);"/>
		</linearGradient>
		<path fill="url(#SVGID_19_)" d="M131.71,655.354l19.152,36.059l0.513-31.808c0,0-4.804-2.26-4.772-4.22&#xA;&#9;&#9;&#9;c0.016-1.976,4.519-2.464,4.519-2.464l3.034-23.166l1.825,23.055c0,0,4.131-0.079,4.456,2.655&#xA;&#9;&#9;&#9;c0.354,2.749-5.286,2.875-5.286,2.875l0.521,35.744l12.302,4.472l-37.213,8.976L131.71,655.354z"/>
		
			<linearGradient id="SVGID_20_" gradientUnits="userSpaceOnUse" x1="311.193" y1="1011.59" x2="184.7261" y2="1162.9485" gradientTransform="matrix(1.0053 0.0111 -0.0427 1 88.1792 -233.3411)">
			<stop offset="0" style="stop-color:#2D241B"/>
			<stop offset="1" style="stop-color:#54473A"/>
		</linearGradient>
		<path fill="url(#SVGID_20_)" d="M222.182,934.206l1.343-99.773c0,0,5.586-45.112,49.245-60.125&#xA;&#9;&#9;&#9;c32.054,10.666,56.191,32.82,55.978,59.936c-0.244,27.226-0.837,97.844-0.837,97.844L222.182,934.206z"/>
		<polygon fill="#86776A" points="288.273,932.593 263.093,932.926 263.662,883.624 288.778,883.244 &#9;&#9;" style="fill: rgb(134, 119, 106);"/>
		
			<linearGradient id="SVGID_21_" gradientUnits="userSpaceOnUse" x1="318.5592" y1="1227.485" x2="216.8502" y2="1340.2709" gradientTransform="matrix(1.0053 0.0111 -0.0427 1 88.1792 -233.3411)">
			<stop offset="0" style="stop-color:#2D241B"/>
			<stop offset="1" style="stop-color:#54473A"/>
		</linearGradient>
		<path fill="url(#SVGID_21_)" d="M219.338,1145.852l1.367-101.778c0,0,5.649-45.967,49.743-60.947&#xA;&#9;&#9;&#9;c32.346,11.092,56.751,33.847,56.507,61.517c-0.238,27.778-0.854,99.786-0.854,99.786L219.338,1145.852z"/>
		<polygon fill="#86776A" points="286.052,1144.684 260.651,1144.81 261.22,1094.544 286.574,1094.355 &#9;&#9;" style="fill: rgb(134, 119, 106);"/>
		
			<linearGradient id="SVGID_22_" gradientUnits="userSpaceOnUse" x1="143.5122" y1="1100.0898" x2="130.5929" y2="1100.0898" gradientTransform="matrix(1.0053 0.0111 -0.0427 1 88.1792 -233.3411)">
			<stop offset="0" style="stop-color: rgb(255, 0, 0);"/>
			<stop offset="0.6374" style="stop-color: rgb(255, 85, 85);"/>
			<stop offset="1" style="stop-color:#B4A794"/>
		</linearGradient>
		<path fill="url(#SVGID_22_)" d="M165.218,1147.749l15.272-520.001c0,0-8.438-0.553-8.296-9.387&#xA;&#9;&#9;&#9;c0.134-8.817,9.268-6.827,9.268-6.827l3.144-22.833l4.591,21.917c0,0,7.759-0.932,7.616,7.917&#xA;&#9;&#9;&#9;c-0.126,8.833-7.846,7.553-7.846,7.553l-13.628,521.612L165.218,1147.749z"/>
	</g>
	<g>
		
			<linearGradient id="SVGID_23_" gradientUnits="userSpaceOnUse" x1="2566.9775" y1="849.4514" x2="2560.5513" y2="961.8416" gradientTransform="matrix(-1.0053 -0.0111 -0.0427 1 3505.6086 -195.4803)">
			<stop offset="0" style="stop-color:#2D241B"/>
			<stop offset="1" style="stop-color:#54473A"/>
		</linearGradient>
		<path fill="url(#SVGID_23_)" d="M951.263,684.175l-6.029-1.011c0,0,2.371-41.905-19.467-43.091&#xA;&#9;&#9;&#9;c-8.628,4.094-6.281,12.374-6.281,12.374l-0.497,30.134l-9.181,5.23l-7.671-2.07c0,0-4.552-38.383-24.178-41.828&#xA;&#9;&#9;&#9;c0,0-9.797-2.023-15.082,7.537c-5.04-10.459-8.723-2.56-8.723-2.56l-0.134,23.893c0,0-16.378-39.646-35.727-29.786l-2.859-11.014&#xA;&#9;&#9;&#9;c0,0,4.155-11.741,4.131-13.399c-0.008-1.659,44.821-5.435,44.821-5.435l58.664-0.254l30.664,5.99l8.73,24.839L951.263,684.175z"/>
		
			<linearGradient id="SVGID_24_" gradientUnits="userSpaceOnUse" x1="2507.1396" y1="866.2399" x2="2504.9661" y2="947.2361" gradientTransform="matrix(-1.0053 -0.0111 -0.0427 1 3505.6086 -195.4803)">
			<stop offset="0" style="stop-color:#54473A"/>
			<stop offset="1" style="stop-color: rgb(208, 188, 156);"/>
		</linearGradient>
		<path fill="url(#SVGID_24_)" d="M956.739,685.171l-5.476-0.995c0,0,5.183-63.696-14.98-62.669&#xA;&#9;&#9;&#9;c8.066-6.859,17.43-2.623,17.43-2.623l5.728,12.641l0.45,46.315L956.739,685.171z"/>
		
			<linearGradient id="SVGID_25_" gradientUnits="userSpaceOnUse" x1="2562.6948" y1="694.3142" x2="2596.5059" y2="694.3142" gradientTransform="matrix(-1.0053 -0.0111 -0.0427 1 3505.6086 -195.4803)">
			<stop offset="0" style="stop-color: rgb(220, 202, 179);"/>
			<stop offset="1" style="stop-color:#887E70"/>
		</linearGradient>
		<path fill="url(#SVGID_25_)" d="M898.311,502.551c0,0,0.222-8.801-11.851-8.501c-1.888,0.063-1.888,0.063-1.888,0.063&#xA;&#9;&#9;&#9;l-3.327-57.581l-2.409-0.426l0.079,57.771c0,0-15.786,0.806-14.514,9.196C879.507,504.606,896.107,504.922,898.311,502.551z"/>
		
			<radialGradient id="SVGID_26_" cx="2656.7161" cy="754.1831" r="154.7248" gradientTransform="matrix(-1.0053 -0.0111 -0.0427 1 3505.6086 -195.4803)" gradientUnits="userSpaceOnUse">
			<stop offset="0" style="stop-color: rgb(255, 0, 0);"/>
			<stop offset="0.544" style="stop-color: rgb(255, 70, 70);"/>
			<stop offset="1" style="stop-color:#AEA18F"/>
		</radialGradient>
		<path fill="url(#SVGID_26_)" d="M957.15,575.508c0,0-4.892-74.22-78.432-70.681c-70.981,3.398-73.968,58.055-73.968,58.055&#xA;&#9;&#9;&#9;l-1.943,21.854L957.15,575.508z"/>
		
			<linearGradient id="SVGID_27_" gradientUnits="userSpaceOnUse" x1="2541.021" y1="731.6589" x2="2620.4719" y2="731.6589" gradientTransform="matrix(-1.0053 -0.0111 -0.0427 1 3505.6086 -195.4803)">
			<stop offset="0" style="stop-color: rgb(220, 202, 179);"/>
			<stop offset="1" style="stop-color:#887E70"/>
		</linearGradient>
		<path fill="url(#SVGID_27_)" d="M919.667,512.933l-0.134-7.285c0,0-10.31-6.226-37.884-5.514&#xA;&#9;&#9;&#9;c-27.454,0.743-41.637,6.841-41.637,6.841l0.102,7.649C840.113,514.624,875.777,507.94,919.667,512.933z"/>
		
			<linearGradient id="SVGID_28_" gradientUnits="userSpaceOnUse" x1="2553.6738" y1="803.2375" x2="2434.395" y2="815.4742" gradientTransform="matrix(-1.0053 -0.0111 -0.0427 1 3505.6086 -195.4803)">
			<stop offset="0" style="stop-color: rgb(255, 70, 70);"/>
			<stop offset="1" style="stop-color:#D0C0A5"/>
		</linearGradient>
		<polygon fill="url(#SVGID_28_)" points="964.109,595.718 963.698,576.598 921.026,565.189 921.667,597.551 &#9;&#9;"/>
		
			<linearGradient id="SVGID_29_" gradientUnits="userSpaceOnUse" x1="2653.5815" y1="807.464" x2="2515.3225" y2="805.4888" gradientTransform="matrix(-1.0053 -0.0111 -0.0427 1 3505.6086 -195.4803)">
			<stop offset="0" style="stop-color: rgb(255, 0, 0);"/>
			<stop offset="0.6374" style="stop-color: rgb(255, 85, 85);"/>
			<stop offset="1" style="stop-color:#B4A794"/>
		</linearGradient>
		<polygon fill="url(#SVGID_29_)" points="844.095,599.352 921.524,597.551 920.883,565.205 843.599,567.102 &#9;&#9;"/>
		<polygon fill="#F8ECDD" points="843.654,567.086 807.057,577.467 807.389,600.206 844.166,599.352 &#9;&#9;" style="fill: rgb(248, 236, 221);"/>
		
			<linearGradient id="SVGID_30_" gradientUnits="userSpaceOnUse" x1="2562.5989" y1="812.2489" x2="2553.417" y2="936.6653" gradientTransform="matrix(-1.0053 -0.0111 -0.0427 1 3505.6086 -195.4803)">
			<stop offset="0" style="stop-color:#54473A"/>
			<stop offset="1" style="stop-color: rgb(208, 188, 156);"/>
		</linearGradient>
		<path fill="url(#SVGID_30_)" d="M965.769,621.932c0,0,27.842-7.759,21.427-19.388c-8.715-15.754-105.176-13.479-105.176-13.479&#xA;&#9;&#9;&#9;s-44.103-0.948-79.49,10.018c0.252,17.666,0.252,17.666,0.252,17.666l28.088-0.647l119.404-3.825L965.769,621.932z"/>
		
			<linearGradient id="SVGID_31_" gradientUnits="userSpaceOnUse" x1="2560.6077" y1="869.3589" x2="2448.9644" y2="867.1348" gradientTransform="matrix(-1.0053 -0.0111 -0.0427 1 3505.6086 -195.4803)">
			<stop offset="0" style="stop-color: rgb(255, 70, 70);"/>
			<stop offset="1" style="stop-color:#D0C0A5"/>
		</linearGradient>
		<path fill="url(#SVGID_31_)" d="M966.408,682.596l-1.565-72.309l-41.407-5.72l1.65,81.252l4.354-0.079l-0.98-47.975&#xA;&#9;&#9;&#9;c0,0-1.477-19.958,13.305-15.296c11.55,3.634,13.945,14.728,14.221,27.527c0.277,12.831,0.751,35.174,0.751,35.174&#xA;&#9;&#9;&#9;L966.408,682.596z"/>
		
			<linearGradient id="SVGID_32_" gradientUnits="userSpaceOnUse" x1="2602.4832" y1="872.4741" x2="2518.4995" y2="867.0388" gradientTransform="matrix(-1.0053 -0.0111 -0.0427 1 3505.6086 -195.4803)">
			<stop offset="0" style="stop-color: rgb(255, 0, 0);"/>
			<stop offset="0.6374" style="stop-color: rgb(255, 85, 85);"/>
			<stop offset="1" style="stop-color:#B4A794"/>
		</linearGradient>
		<path fill="url(#SVGID_32_)" d="M925.087,685.819l-1.65-81.252l-65.672,1.502l1.374,80.524l6.526-0.094l-0.631-35.634&#xA;&#9;&#9;&#9;c0,0-2.118-28.27,22.328-28.838c24.444-0.537,23.868,25.614,23.868,25.614l0.735,39.014L925.087,685.819z"/>
		<path fill="#F8ECDD" d="M859.139,686.593l-1.374-80.524l-46.9,8.31l1.011,70.413l7.04-0.126l-0.625-41.669&#xA;&#9;&#9;&#9;c0,0-0.68-15.613,15.422-19.184c19.42-4.328,18.26,23.972,18.26,23.972l0.631,38.983L859.139,686.593z" style="fill: rgb(248, 236, 221);"/>
		
			<linearGradient id="SVGID_33_" gradientUnits="userSpaceOnUse" x1="2865.1169" y1="1145.6167" x2="2157.4453" y2="1123.4489" gradientTransform="matrix(-1.0053 -0.0111 -0.0427 1 3505.6086 -195.4803)">
			<stop offset="0" style="stop-color: rgb(255, 0, 0);"/>
			<stop offset="0.6374" style="stop-color: rgb(255, 85, 85);"/>
			<stop offset="1" style="stop-color:#B4A794"/>
		</linearGradient>
		<polygon fill="url(#SVGID_33_)" points="1003.226,677.129 811.876,681.095 818.584,1143.166 1021.857,1142.012 &#9;&#9;"/>
		
			<linearGradient id="SVGID_34_" gradientUnits="userSpaceOnUse" x1="2634.1196" y1="932.4415" x2="2345.583" y2="914.1861" gradientTransform="matrix(-1.0053 -0.0111 -0.0427 1 3505.6086 -195.4803)">
			<stop offset="0" style="stop-color: rgb(255, 0, 0);"/>
			<stop offset="0.6374" style="stop-color: rgb(255, 85, 85);"/>
			<stop offset="1" style="stop-color:#B4A794"/>
		</linearGradient>
		<polygon fill="url(#SVGID_34_)" points="812.492,708.351 1003.867,704.56 1003.733,697.687 812.382,701.526 &#9;&#9;"/>
		
			<linearGradient id="SVGID_35_" gradientUnits="userSpaceOnUse" x1="2628.7002" y1="931.0371" x2="2392.1719" y2="933.9097" gradientTransform="matrix(-1.0053 -0.0111 -0.0427 1 3505.6086 -195.4803)">
			<stop offset="0" style="stop-color: rgb(221, 204, 181);"/>
			<stop offset="1" style="stop-color: rgb(180, 167, 148);"/>
		</linearGradient>
		<polygon fill="url(#SVGID_35_)" points="812.525,712.366 1003.969,708.605 1003.867,704.322 812.476,708.115 &#9;&#9;"/>
		
			<linearGradient id="SVGID_36_" gradientUnits="userSpaceOnUse" x1="2755.8599" y1="1054.5009" x2="2434.1038" y2="1065.4449" gradientTransform="matrix(-1.0053 -0.0111 -0.0427 1 3505.6086 -195.4803)">
			<stop offset="0" style="stop-color: rgb(255, 0, 0);"/>
			<stop offset="0.6374" style="stop-color: rgb(255, 85, 85);"/>
			<stop offset="1" style="stop-color:#B4A794"/>
		</linearGradient>
		<polygon fill="url(#SVGID_36_)" points="850.763,928.484 970.714,926.952 966.789,748.03 847.849,750.242 &#9;&#9;"/>
		
			<linearGradient id="SVGID_37_" gradientUnits="userSpaceOnUse" x1="2752.9578" y1="1267.0629" x2="2427.3916" y2="1278.1366" gradientTransform="matrix(-1.0053 -0.0111 -0.0427 1 3505.6086 -195.4803)">
			<stop offset="0" style="stop-color: rgb(255, 0, 0);"/>
			<stop offset="0.6374" style="stop-color: rgb(255, 85, 85);"/>
			<stop offset="1" style="stop-color:#B4A794"/>
		</linearGradient>
		<polygon fill="url(#SVGID_37_)" points="854.272,1142.944 975.423,1142.25 971.418,959.678 851.286,961.068 &#9;&#9;"/>
		
			<linearGradient id="SVGID_38_" gradientUnits="userSpaceOnUse" x1="2210.5537" y1="1080.4701" x2="2606.915" y2="1047.7805" gradientTransform="matrix(-1.0053 -0.0111 -0.0427 1 3505.6086 -195.4803)">
			<stop offset="0" style="stop-color: rgb(255, 70, 70);"/>
			<stop offset="1" style="stop-color:#D0C0A5"/>
		</linearGradient>
		<path fill="url(#SVGID_38_)" d="M1127.91,628.364c0,0,10.476-10.302-1.2-12.563c-4.615-16.655-4.615-16.655-4.615-16.655&#xA;&#9;&#9;&#9;l-4.44,17.699c0,0-8.265,0.189-8.123,6.035c0.205,5.862,5.99,5.736,5.99,5.736l5.72-1.817l2.149,73.241l-26.705-5.357&#xA;&#9;&#9;&#9;l-3.445-122.447c0,0,8.17-2.702,7.23-6.841c-0.948-4.141-8.391-5.626-8.391-5.626l-3.752-15.738l-3.626,17.571&#xA;&#9;&#9;&#9;c0,0-9.853,0.238-8.904,4.409c0.924,4.125,9.204,6.416,9.204,6.416l1.738,61.863l-28.048,0.633l1.422,53.742l-53.827-11.505&#xA;&#9;&#9;&#9;l15.201,465.659l128.515-0.743L1127.91,628.364z"/>
		
			<linearGradient id="SVGID_39_" gradientUnits="userSpaceOnUse" x1="1022.871" y1="1047.3275" x2="1095.8269" y2="1047.3275" gradientTransform="matrix(1.0012 0.0678 -0.0998 0.9978 120.9868 -263.7448)">
			<stop offset="0" style="stop-color:#2D241B"/>
			<stop offset="1" style="stop-color:#54473A"/>
		</linearGradient>
		<path fill="url(#SVGID_39_)" d="M1105.897,932.641l-3.207-113.266c0,0-3.398-32.346-30.364-45.509&#xA;&#9;&#9;&#9;c-18.922,7.142-29.177,27.7-28.593,50.708c0.6,23.038,2.671,105.365,2.671,105.365L1105.897,932.641z"/>
		
			<linearGradient id="SVGID_40_" gradientUnits="userSpaceOnUse" x1="1048.5786" y1="1255.4429" x2="1122.4238" y2="1255.4429" gradientTransform="matrix(1.0012 0.0678 -0.0998 0.9978 120.9868 -263.7448)">
			<stop offset="0" style="stop-color:#2D241B"/>
			<stop offset="1" style="stop-color:#54473A"/>
		</linearGradient>
		<path fill="url(#SVGID_40_)" d="M1111.792,1141.744l-3.255-115.509c0,0-3.429-33.011-30.679-46.569&#xA;&#9;&#9;&#9;c-19.097,7.112-29.462,28.064-28.854,51.483c0.584,23.496,2.828,111.86,2.828,111.86L1111.792,1141.744z"/>
		<polygon fill="#F8ECDD" points="970.714,926.952 981.136,926.842 976.94,738.487 837.531,741.11 840.469,928.881 850.749,928.753 &#xA;&#9;&#9;&#9;847.849,750.242 966.789,748.03 &#9;&#9;" style="fill: rgb(248, 236, 221);"/>
		<polygon fill="#F8ECDD" points="975.423,1141.886 985.963,1141.823 981.657,949.659 840.833,951.333 843.835,1142.914 &#xA;&#9;&#9;&#9;854.233,1142.834 851.286,960.689 971.426,959.298 &#9;&#9;" style="fill: rgb(248, 236, 221);"/>
		
			<linearGradient id="SVGID_41_" gradientUnits="userSpaceOnUse" x1="2437.4087" y1="878.889" x2="2258.0344" y2="832.6205" gradientTransform="matrix(-1.0053 -0.0111 -0.0427 1 3505.6086 -195.4803)">
			<stop offset="0" style="stop-color:#54473A"/>
			<stop offset="1" style="stop-color: rgb(208, 188, 156);"/>
		</linearGradient>
		<path fill="url(#SVGID_41_)" d="M1058.69,634.922l-20.027,38.019l-0.838-32.726c0,0,5.087-2.544,5.065-4.55&#xA;&#9;&#9;&#9;c-0.063-2.039-4.82-2.324-4.82-2.324l-3.374-23.702l-1.793,23.797c0,0-4.369,0.11-4.686,2.938c-0.3,2.828,5.634,2.702,5.634,2.702&#xA;&#9;&#9;&#9;l-0.285,36.802l-12.98,5.136l39.527,7.649L1058.69,634.922z"/>
		
			<linearGradient id="SVGID_42_" gradientUnits="userSpaceOnUse" x1="2620.3313" y1="989.5483" x2="2486.2146" y2="1150.0623" gradientTransform="matrix(-1.0053 -0.0111 -0.0427 1 3505.6086 -195.4803)">
			<stop offset="0" style="stop-color:#2D241B"/>
			<stop offset="1" style="stop-color:#54473A"/>
		</linearGradient>
		<path fill="url(#SVGID_42_)" d="M965.389,924.708l-2.196-102.156c0,0-6.257-45.999-52.012-59.746&#xA;&#9;&#9;&#9;c-33.223,12.073-58.07,35.443-57.636,63.049c0.452,27.668,1.636,99.487,1.636,99.487L965.389,924.708z"/>
		<polygon fill="#86776A" points="896.329,924.803 922.552,924.471 921.571,874.096 895.389,874.507 &#9;&#9;" style="fill: rgb(134, 119, 106);"/>
		
			<linearGradient id="SVGID_43_" gradientUnits="userSpaceOnUse" x1="2608.543" y1="1209.4404" x2="2499.7288" y2="1330.1053" gradientTransform="matrix(-1.0053 -0.0111 -0.0427 1 3505.6086 -195.4803)">
			<stop offset="0" style="stop-color:#2D241B"/>
			<stop offset="1" style="stop-color:#54473A"/>
		</linearGradient>
		<path fill="url(#SVGID_43_)" d="M970.091,1141.538l-2.236-104.291c0,0-6.336-46.994-52.565-61.326&#xA;&#9;&#9;&#9;c-33.554,12.073-58.687,35.774-58.221,63.902c0.466,28.27,1.675,101.542,1.675,101.542L970.091,1141.538z"/>
		<polygon fill="#86776A" points="900.303,1141.127 926.786,1140.987 925.806,1089.567 899.355,1089.805 &#9;&#9;" style="fill: rgb(134, 119, 106);"/>
		
			<linearGradient id="SVGID_44_" gradientUnits="userSpaceOnUse" x1="2463.6719" y1="1078.4199" x2="2433.179" y2="1078.4199" gradientTransform="matrix(-1.0053 -0.0111 -0.0427 1 3505.6086 -195.4803)">
			<stop offset="0" style="stop-color: rgb(255, 0, 0);"/>
			<stop offset="0.6374" style="stop-color: rgb(255, 85, 85);"/>
			<stop offset="1" style="stop-color:#B4A794"/>
		</linearGradient>
		<path fill="url(#SVGID_44_)" d="M1027.127,1142.818l-20.322-534.033c0,0,8.904-0.948,8.699-10.001&#xA;&#9;&#9;&#9;c-0.236-9.071-9.828-6.59-9.828-6.59l-3.532-23.275l-4.637,22.723c0,0-8.2-0.57-7.956,8.5c0.197,9.071,8.327,7.364,8.327,7.364&#xA;&#9;&#9;&#9;l18.512,535.345L1027.127,1142.818z"/>
	</g>
	
		<linearGradient id="SVGID_45_" gradientUnits="userSpaceOnUse" x1="552.08" y1="350.9524" x2="485.7425" y2="349.6496" gradientTransform="matrix(1.0053 0.0111 -0.0427 1 88.1792 -233.3411)">
		<stop offset="0" style="stop-color: rgb(220, 202, 179);"/>
		<stop offset="1" style="stop-color:#887E70"/>
	</linearGradient>
	<path fill="url(#SVGID_45_)" d="M575.12,173.718l-12.917,18.82l44.164-1.642l-12.427-17.888l-7.799,0.285l-0.023-7.191l7.789-0.299&#xA;&#9;&#9;l-0.047-9.798l-7.791,0.301l-0.031-8.912c6.328-1.707,10.998-7.569,10.974-14.364c-0.031-6.811-4.764-12.262-11.084-13.527&#xA;&#9;&#9;l-0.063-16.655l5.183-0.22l-0.063-12.99l-5.184,0.222l-0.149-38.24l-4.489,0.159l0.126,38.24l-5.15,0.222l0.039,12.972l5.175-0.189&#xA;&#9;&#9;l0.049,16.403c-7.221,0.932-12.919,7.236-12.878,14.695c0.016,7.49,5.759,13.336,12.996,13.731l0.016,8.628l-5.832,0.206&#xA;&#9;&#9;l0.04,9.798l5.83-0.191l0.016,7.191L575.12,173.718z"/>
	
		<linearGradient id="SVGID_46_" gradientUnits="userSpaceOnUse" x1="567.1429" y1="445.3538" x2="476.6471" y2="450.0345" gradientTransform="matrix(1.0053 0.0111 -0.0427 1 88.1792 -233.3411)">
		<stop offset="0" style="stop-color: rgb(255, 0, 0);"/>
		<stop offset="1" style="stop-color: rgb(220, 202, 179);"/>
	</linearGradient>
	<path fill="url(#SVGID_46_)" d="M677.435,249.188c0,0,8.684-11.251-3.934-13.843c-12.579-2.576-48.74-21.506-67.135-44.449&#xA;&#9;&#9;c-11.131-3.904-36.81-3.919-44.164,1.642c-4.37,4.235-27.037,34.464-63.224,48.97c-7.696,2.67-6.353,11.725-0.426,13.32&#xA;&#9;&#9;C504.487,256.425,677.435,249.188,677.435,249.188z"/>
	
		<linearGradient id="SVGID_47_" gradientUnits="userSpaceOnUse" x1="578.6844" y1="467.1876" x2="441.6516" y2="467.1876" gradientTransform="matrix(1.0053 0.0111 -0.0427 1 88.1792 -233.3411)">
		<stop offset="0" style="stop-color: rgb(220, 202, 179);"/>
		<stop offset="1" style="stop-color:#887E70"/>
	</linearGradient>
	<path fill="url(#SVGID_47_)" d="M497.289,254.165c0,0-11.796-8.154,9.584-15.77c21.451-7.649,89.793-23.83,153.505-6.605&#xA;&#9;&#9;c9.734,3.681,25.386,5.752,17.058,17.398C661.649,249.014,497.289,254.165,497.289,254.165z"/>
	
		<radialGradient id="SVGID_48_" cx="732.6109" cy="714.5125" r="383.4777" gradientTransform="matrix(1.0053 0.0111 -0.0427 1 88.1792 -233.3411)" gradientUnits="userSpaceOnUse">
		<stop offset="0" style="stop-color: rgb(255, 0, 0);"/>
		<stop offset="0.544" style="stop-color: rgb(255, 70, 70);"/>
		<stop offset="1" style="stop-color:#AEA18F"/>
	</radialGradient>
	<path fill="url(#SVGID_48_)" d="M371.563,528.276c0,0-48.171-99.771,40.373-205.452c46.095-52.382,85.859-83.828,176.49-88.647&#xA;&#9;&#9;c0,0,159.825-13.637,221.737,149.136c0,0,21.75,57.17,2.023,138.801c-10.65,89.974-81.403,42.048-237.846,71.076&#xA;&#9;&#9;C335.954,637.434,370.124,508.113,371.563,528.276z"/>
	<path fill="none" stroke="#FFED00" stroke-width="0.0774" d="M382,530.978"/>
	
		<linearGradient id="SVGID_49_" gradientUnits="userSpaceOnUse" x1="365.4839" y1="533.3842" x2="651.8828" y2="535.5036" gradientTransform="matrix(0.9998 0.0204 -0.0204 0.9998 14.6194 -17.4801)">
		<stop offset="0" style="stop-color:#54473A"/>
		<stop offset="1" style="stop-color: rgb(208, 188, 156);"/>
	</linearGradient>
	<path fill="url(#SVGID_49_)" d="M473.31,534.897l7.83-1.659l0.165-24.619l-7.663,1.516L473.31,534.897z M497.897,505.522&#xA;&#9;&#9;l-0.702,24.019l8.239-0.901l-0.338-24.967L497.897,505.522z M523.116,503.089l-0.68,22.281l8.422-0.206l-0.529-22.771&#xA;&#9;&#9;L523.116,503.089z M547.98,500.386l-0.639,22.281l8.438-0.206l-0.578-22.755L547.98,500.386z M615.161,498.569l-0.584,22.359&#xA;&#9;&#9;l8.485-0.236l-0.649-22.786L615.161,498.569z M571.234,499.754l-0.657,22.313l8.471-0.222l-0.594-22.786L571.234,499.754z&#xA;&#9;&#9; M593.979,499.153l-0.639,22.328l8.494-0.236l-0.633-22.786L593.979,499.153z M449.403,539.386l7.773-1.66l0.197-24.603&#xA;&#9;&#9;l-7.639,1.502L449.403,539.386z M428.892,545.152l7.789-1.659l0.238-24.603l-7.665,1.516L428.892,545.152z M405.497,551.884&#xA;&#9;&#9;l7.798-1.659l0.252-24.587l-7.624,1.5L405.497,551.884z M387.784,557.762l7.781-1.644l0.26-24.634l-7.624,1.548L387.784,557.762z&#xA;&#9;&#9; M689.587,501.713l0.348,24.745l7.948,1.296l-0.529-24.935L689.587,501.713z M662.329,497.416l-0.149,25.093l8.335,0.458&#xA;&#9;&#9;l-0.893-24.066L662.329,497.416z M640.017,497.416l-0.379,26.499l8.518-0.206l-0.877-25.993L640.017,497.416z M711.417,504.336&#xA;&#9;&#9;l0.372,24.81l7.94,1.248l-0.537-24.951L711.417,504.336z M732.3,509.061l0.403,24.825l7.948,1.264l-0.57-24.949L732.3,509.061z&#xA;&#9;&#9; M756.84,514.323l0.442,24.841l7.989,1.264l-0.608-25.014L756.84,514.323z M785.346,523.457l-7.822-1.17l0.442,24.92l8.019,1.28&#xA;&#9;&#9;L785.346,523.457z"/>
	
		<linearGradient id="SVGID_50_" gradientUnits="userSpaceOnUse" x1="509.6413" y1="438.8059" x2="457.6953" y2="437.7857" gradientTransform="matrix(1.0053 0.0111 -0.0427 1 88.1792 -233.3411)">
		<stop offset="0" style="stop-color: rgb(220, 202, 179);"/>
		<stop offset="1" style="stop-color:#887E70"/>
	</linearGradient>
	<path fill="url(#SVGID_50_)" d="M565.789,191.069c0,0-16.077,26.658-33.516,39.219c5.239-0.631,7.404-2.481,7.404-2.481&#xA;&#9;&#9;s17.017-13.874,29.611-37.75C567.978,190.548,565.789,191.069,565.789,191.069z"/>
	
		<linearGradient id="SVGID_51_" gradientUnits="userSpaceOnUse" x1="508.3638" y1="435.1697" x2="482.8134" y2="434.6679" gradientTransform="matrix(1.0053 0.0111 -0.0427 1 88.1792 -233.3411)">
		<stop offset="0" style="stop-color: rgb(220, 202, 179);"/>
		<stop offset="1" style="stop-color:#887E70"/>
	</linearGradient>
	<path fill="url(#SVGID_51_)" d="M572.371,190.831c0,0-8.241,24.178-16.521,33.31c5.665-0.647,5.665-0.647,5.665-0.647&#xA;&#9;&#9;s12.199-21.679,13.446-33.626C573.659,190.343,572.371,190.831,572.371,190.831z"/>
	<g>
		
			<linearGradient id="SVGID_52_" gradientUnits="userSpaceOnUse" x1="2710.3262" y1="434.8047" x2="2654.6538" y2="433.7113" gradientTransform="matrix(-1.0053 -0.0111 -0.0427 1 3325.302 -197.4724)">
			<stop offset="0" style="stop-color: rgb(220, 202, 179);"/>
			<stop offset="1" style="stop-color:#887E70"/>
		</linearGradient>
		<path fill="url(#SVGID_52_)" d="M600.782,189.789c0,0,14.972,23.781,32.616,35.111c-5.262-0.236-7.467-1.927-7.467-1.927&#xA;&#9;&#9;&#9;s-15.849-10.982-28.671-33.943C598.57,189.425,600.782,189.789,600.782,189.789z"/>
		
			<linearGradient id="SVGID_53_" gradientUnits="userSpaceOnUse" x1="2709.2908" y1="433.3929" x2="2678.9382" y2="432.7968" gradientTransform="matrix(-1.0053 -0.0111 -0.0427 1 3325.302 -197.4724)">
			<stop offset="0" style="stop-color: rgb(220, 202, 179);"/>
			<stop offset="1" style="stop-color:#887E70"/>
		</linearGradient>
		<path fill="url(#SVGID_53_)" d="M594.209,190.042c0,0,8.414,23.561,16.781,32.109c-5.689-0.238-5.689-0.238-5.689-0.238&#xA;&#9;&#9;&#9;s-12.356-20.763-13.707-32.677C592.897,189.631,594.209,190.042,594.209,190.042z"/>
	</g>
	
		<linearGradient id="SVGID_54_" gradientUnits="userSpaceOnUse" x1="516.9471" y1="433.7959" x2="506.4201" y2="433.5891" gradientTransform="matrix(1.0053 0.0111 -0.0427 1 88.1792 -233.3411)">
		<stop offset="0" style="stop-color: rgb(220, 202, 179);"/>
		<stop offset="1" style="stop-color:#887E70"/>
	</linearGradient>
	<path fill="url(#SVGID_54_)" d="M581.961,190.058c0,0-1.65,27.464-3.396,31.935c3.476-0.126,7.008-0.252,7.008-0.252l-0.545-31.808&#xA;&#9;&#9;"/>
	
		<linearGradient id="SVGID_55_" gradientUnits="userSpaceOnUse" x1="315.8583" y1="787.0742" x2="551.2732" y2="787.0742" gradientTransform="matrix(1.0053 0.0111 -0.0427 1 88.1792 -233.3411)">
		<stop offset="0" style="stop-color:#54473A"/>
		<stop offset="1" style="stop-color: rgb(208, 188, 156);"/>
	</linearGradient>
	<path fill="url(#SVGID_55_)" d="M379.771,573.31c0,0,86.712-31.745,209.096-35.948c118.868-4.045,185.085,18.82,213.915,28.585&#xA;&#9;&#9;l-0.181,5.356c0,0-83.22-32.03-213.054-26.025c-128.515,5.989-210.905,35.127-210.905,35.127L379.771,573.31z"/>
	
		<linearGradient id="SVGID_56_" gradientUnits="userSpaceOnUse" x1="313.4518" y1="717.526" x2="548.0411" y2="717.526" gradientTransform="matrix(1.0053 0.0111 -0.0427 1 88.1792 -233.3411)">
		<stop offset="0" style="stop-color:#54473A"/>
		<stop offset="1" style="stop-color: rgb(208, 188, 156);"/>
	</linearGradient>
	<path fill="url(#SVGID_56_)" d="M381.377,506.47c0,0,62.447-35.902,208.478-41.258c118.435-4.33,183.435,17.966,212.628,32.583&#xA;&#9;&#9;l-0.506,6.446c0,0-61.594-36.185-212.161-32.647c-136.156,3.192-209.538,41.921-209.538,41.921L381.377,506.47z"/>
	
		<linearGradient id="SVGID_57_" gradientUnits="userSpaceOnUse" x1="313.8121" y1="727.6168" x2="548.5366" y2="727.6168" gradientTransform="matrix(1.0053 0.0111 -0.0427 1 88.1792 -233.3411)">
		<stop offset="0" style="stop-color:#54473A"/>
		<stop offset="1" style="stop-color: rgb(208, 188, 156);"/>
	</linearGradient>
	<path fill="url(#SVGID_57_)" d="M381.328,516.551c0,0,62.449-35.917,208.559-41.242c118.496-4.298,183.543,18.061,212.769,32.726&#xA;&#9;&#9;l-0.553,6.43c0,0-61.586-36.218-212.248-32.757c-136.233,3.16-209.64,41.891-209.64,41.891L381.328,516.551z"/>
	
		<linearGradient id="SVGID_58_" gradientUnits="userSpaceOnUse" x1="314.2643" y1="743.8011" x2="549.1969" y2="743.8011" gradientTransform="matrix(1.0053 0.0111 -0.0427 1 88.1792 -233.3411)">
		<stop offset="0" style="stop-color:#54473A"/>
		<stop offset="1" style="stop-color: rgb(208, 188, 156);"/>
	</linearGradient>
	<path fill="url(#SVGID_58_)" d="M382.838,529.478c0,0,82.832-31.556,210.311-34.985c128.548-3.445,176.372,19.846,205.138,29.532&#xA;&#9;&#9;l-0.38,6.747c0,0-64.423-35.648-205.167-29.723c-143.622,6.021-210.85,35.57-210.85,35.57L382.838,529.478z"/>
	
		<linearGradient id="SVGID_59_" gradientUnits="userSpaceOnUse" x1="315.241" y1="770.7946" x2="550.4608" y2="770.7946" gradientTransform="matrix(1.0053 0.0111 -0.0427 1 88.1792 -233.3411)">
		<stop offset="0" style="stop-color:#54473A"/>
		<stop offset="1" style="stop-color: rgb(208, 188, 156);"/>
	</linearGradient>
	<path fill="url(#SVGID_59_)" d="M382.671,557.003c0,0,79.712-34.415,212.043-36.375c121.823-1.817,175.501,19.673,204.339,29.407&#xA;&#9;&#9;l-0.378,4.234c0,0-76.567-31.192-206.362-27.826c-143.811,3.728-210.604,37.718-210.604,37.718L382.671,557.003z"/>
	
		<linearGradient id="SVGID_60_" gradientUnits="userSpaceOnUse" x1="916.588" y1="916.0632" x2="160.4258" y2="1161.1907" gradientTransform="matrix(1.0053 0.0111 -0.0427 1 88.1792 -233.3411)">
		<stop offset="0" style="stop-color: rgb(255, 0, 0);"/>
		<stop offset="0.6374" style="stop-color: rgb(255, 85, 85);"/>
		<stop offset="1" style="stop-color:#B4A794"/>
	</linearGradient>
	<polygon fill="url(#SVGID_60_)" points="804.243,471.091 803.58,497.1 795.396,498.348 796.248,557.099 382.758,567.338 &#xA;&#9;&#9;383.074,514.498 378.168,508.477 376.398,471.612 369.082,530.268 367.992,689.928 364.99,1142.376 830.68,1139.642 &#xA;&#9;&#9;811.876,504.179 &#9;"/>
	<polygon fill="#F8ECDD" points="802.166,611.535 375.095,621.332 375.134,615.612 802.086,605.721 &#9;" style="fill: rgb(248, 236, 221);"/>
	<polygon fill="#F8ECDD" points="801.606,571.825 375.323,582.16 375.395,576.487 801.527,566.026 &#9;" style="fill: rgb(248, 236, 221);"/>
	<polygon fill="#F8ECDD" points="374.827,1140.938 378.003,627.715 798.232,615.881 814.531,1139.911 795.032,1140.006 &#xA;&#9;&#9;780.177,633.547 402.826,646.393 395.977,1141.571 &#9;" style="fill: rgb(248, 236, 221);"/>
	<polygon fill="#F8ECDD" points="434.036,1141.349 432.723,685.899 748.465,675.564 759.06,1139.436 738.881,1139.564 &#xA;&#9;&#9;728.957,697.038 455.652,702.584 454.545,1142.771 &#9;" style="fill: rgb(248, 236, 221);"/>
	<polygon fill="none" stroke="#FFED00" stroke-width="0.0535" points="453.1,1142.787 374.068,1143.229 374.273,1108.356 &#xA;&#9;&#9;453.163,1107.77 &#9;"/>
	<polygon fill="none" stroke="#FFED00" stroke-width="0.0545" points="447.498,1135.834 380.689,1136.213 380.807,1115.293 &#xA;&#9;&#9;447.545,1114.819 &#9;"/>
	<polygon fill="none" stroke="#FFED00" stroke-width="0.0535" points="816.704,1140.669 735.784,1141.143 735.411,1105.811 &#xA;&#9;&#9;816.19,1105.257 &#9;"/>
	<polygon fill="none" stroke="#FFED00" stroke-width="0.0545" points="810.881,1133.606 742.46,1134.048 742.238,1112.811 &#xA;&#9;&#9;810.565,1112.385 &#9;"/>
	
		<linearGradient id="SVGID_61_" gradientUnits="userSpaceOnUse" x1="411.3159" y1="1160.114" x2="700.6589" y2="1160.114" gradientTransform="matrix(1.0053 0.0111 -0.0427 1 88.1792 -233.3411)">
		<stop offset="0" style="stop-color: rgb(221, 204, 181);"/>
		<stop offset="1" style="stop-color: rgb(180, 167, 148);"/>
	</linearGradient>
	<path fill="url(#SVGID_61_)" d="M453.1,1142.787l2.733-297.941c0,0,0.901-40.153,35.269-63.254&#xA;&#9;&#9;c34.409-23.118,100.056-60.157,100.056-60.157s50.004,24.066,76.693,35.255c26.8,11.251,62.796,40.862,63.24,82.99&#xA;&#9;&#9;c0.442,42.316,3.168,299.915,3.168,299.915l-11.71,0.853L453.1,1142.787z"/>
	
		<linearGradient id="SVGID_62_" gradientUnits="userSpaceOnUse" x1="774.3223" y1="1029.5941" x2="527.6221" y2="1230.8496" gradientTransform="matrix(1.0053 0.0111 -0.0427 1 88.1792 -233.3411)">
		<stop offset="0" style="stop-color:#2D241B"/>
		<stop offset="1" style="stop-color:#54473A"/>
	</linearGradient>
	<path fill="url(#SVGID_62_)" d="M464.825,1141.933l0.521-267.838c0,0-1.754-56.68,53.678-91.807&#xA;&#9;&#9;c34.045-20.953,71.249-43.264,71.249-43.264s60.363,29.106,87.202,44.449c26.917,15.424,41.96,48.986,42.286,80.241&#xA;&#9;&#9;c0.316,31.367,2.788,276.734,2.788,276.734L464.825,1141.933z"/>
	<path fill="#86776A" d="M557.888,939.277c0,0-0.086-37.97-0.094-45.951c-0.008-1.976,0.592-17.935,15.178-26.768&#xA;&#9;&#9;c13.487-8.17,19.026-14.87,19.026-14.87s13.399,10.382,24.88,16.877c10.752,6.052,12.838,15.77,12.909,25.757&#xA;&#9;&#9;c0.039,10.003,0.244,43.392,0.244,43.392L557.888,939.277z" style="fill: rgb(134, 119, 106);"/>
	<path fill="#86776A" d="M558.386,1140.653c0,0-0.181-69.89-0.189-77.997c-0.008-2.023,0.576-18.203,15.288-27.084&#xA;&#9;&#9;c13.582-8.233,19.192-15.027,19.192-15.027s13.479,10.65,25.077,17.288c10.823,6.209,12.925,16.116,12.988,26.262&#xA;&#9;&#9;c0.079,10.16,0.458,75.406,0.458,75.406L558.386,1140.653z" style="fill: rgb(134, 119, 106);"/>
	
		<linearGradient id="SVGID_63_" gradientUnits="userSpaceOnUse" x1="480.8719" y1="1315.5726" x2="564.9603" y2="1142.4396" gradientTransform="matrix(1.0053 0.0111 -0.0427 1 88.1792 -233.3411)">
		<stop offset="0" style="stop-color: rgb(255, 70, 70);"/>
		<stop offset="1" style="stop-color:#D0C0A5"/>
	</linearGradient>
	<polygon fill="url(#SVGID_63_)" points="719.951,947.699 464.438,950.782 464.461,939.784 719.863,936.607 &#9;"/>
	
		<linearGradient id="SVGID_64_" gradientUnits="userSpaceOnUse" x1="541.1492" y1="1230.6213" x2="551.9299" y2="1105.5358" gradientTransform="matrix(1.0053 0.0111 -0.0427 1 88.1792 -233.3411)">
		<stop offset="0" style="stop-color: rgb(255, 0, 0);"/>
		<stop offset="0.6374" style="stop-color: rgb(255, 85, 85);"/>
		<stop offset="1" style="stop-color:#B4A794"/>
	</linearGradient>
	<polygon fill="url(#SVGID_64_)" points="629.81,890.15 605.539,890.498 605.412,861.644 600.277,858.183 600.37,881.728 &#xA;&#9;&#9;583.093,881.964 583.005,860.285 577.491,863.966 577.727,890.893 557.991,891.161 557.999,895.949 577.782,895.681 &#xA;&#9;&#9;578.178,938.852 583.282,938.756 583.107,886.801 600.403,886.547 600.625,938.567 605.759,938.487 605.561,895.286 &#xA;&#9;&#9;629.849,894.954 &#9;"/>
	
		<linearGradient id="SVGID_65_" gradientUnits="userSpaceOnUse" x1="590.4088" y1="1236.3539" x2="605.5393" y2="1060.7965" gradientTransform="matrix(0.9998 0.0204 -0.0204 0.9998 14.6194 -17.4801)">
		<stop offset="0" style="stop-color: rgb(255, 0, 0);"/>
		<stop offset="0.6374" style="stop-color: rgb(255, 85, 85);"/>
		<stop offset="1" style="stop-color:#B4A794"/>
	</linearGradient>
	<path fill="url(#SVGID_65_)" d="M630.83,1064.474l-0.016-4.898l-24.509,0.205l-0.134-29.344l-5.159-3.508l0.094,23.909&#xA;&#9;&#9;l-17.412,0.157l-0.079-22.043l-5.555,3.714l0.189,27.368l-19.846,0.142v4.883l19.894-0.142l0.348,49.19l-20.1,0.126v4.914&#xA;&#9;&#9;l20.155-0.126l0.165,21.522l5.128-0.047l-0.071-30.103l17.453-0.11l0.128,30.101l5.183-0.015l-0.112-21.538l24.564-0.142&#xA;&#9;&#9;l-0.031-4.961l-24.572,0.189l-0.205-49.239L630.83,1064.474z M583.898,1105.479l-0.189-49.585l17.429-0.159l0.213,49.57&#xA;&#9;&#9;L583.898,1105.479z"/>
</g>
</svg>